<svg xmlns="http://www.w3.org/2000/svg" viewBox="0 0 1200 820" role="img" aria-label="Neon celebration after solving problems">
  <defs>
    <filter id="glow" x="-30%" y="-30%" width="160%" height="160%">
      <feGaussianBlur stdDeviation="7" result="blur"/>
      <feMerge><feMergeNode in="blur"/><feMergeNode in="SourceGraphic"/></feMerge>
    </filter>
  </defs>
  <rect width="1200" height="820" fill="#020812"/>
  <g filter="url(#glow)" fill="none" stroke="#ff7a18" stroke-width="13" stroke-linecap="round" stroke-linejoin="round">
    <path d="M252 760V522c0-60 32-110 86-137"/>
    <path d="M440 758l12-218c6-94 54-162 144-205"/>
    <path d="M794 758l-19-220c-7-92-55-159-144-202"/>
    <path d="M146 496c42 76 91 113 148 112 57-2 99-40 126-114"/>
    <path d="M776 496c34 73 81 110 140 111 59 1 106-36 141-111"/>
    <path d="M501 383c50 75 102 113 158 113 56 0 107-38 153-113"/>
    <path d="M452 694c49-65 100-66 153-5l-17 111"/>
    <path d="M655 689c64 38 93 89 87 153"/>
    <path d="M278 247c45-6 81 10 108 48"/>
    <path d="M530 220c45-21 88-19 129 5"/>
    <path d="M840 254c42-14 80-7 116 20"/>
    <path d="M197 150l32 12M313 116l-4 36M441 154l28 20M598 106l18 36M753 150l18 36M887 120l-20 32M1005 160l35-16"/>
    <circle cx="210" cy="225" r="18"/>
    <circle cx="382" cy="184" r="14"/>
    <circle cx="690" cy="178" r="16"/>
    <circle cx="955" cy="208" r="18"/>
  </g>
</svg>
